<?xml version="1.0" encoding="UTF-8"?>
<svg width="39px" height="38px" viewBox="0 0 39 38" version="1.1" xmlns="http://www.w3.org/2000/svg" xmlns:xlink="http://www.w3.org/1999/xlink">
    <!-- Generator: sketchtool 48.2 (47327) - http://www.bohemiancoding.com/sketch -->
    <title>45181B91-1329-405E-876B-3647B302C5AD</title>
    <desc>Created with sketchtool.</desc>
    <defs></defs>
    <g id="Footer" stroke="none" stroke-width="1" fill="none" fill-rule="evenodd" transform="translate(-629.000000, -62.000000)" opacity="0.400000006">
        <g fill="#BBB6A8" id="Social-Media-Links">
            <g transform="translate(430.000000, 62.000000)">
                <path d="M207,12 L207,38 L199,38 L199,12 L207,12 Z M209,3.99861719 C209,6.22140278 207.069693,8 203.970266,8 L203.913461,8 C200.929242,8 199,6.22140278 199,3.99861719 C199,1.72881616 200.988,0 204.028846,0 C207.069693,0 208.942307,1.72881616 209,3.99861719 Z M238,23.434126 L237.99966,37.9993256 L229.483401,37.9993256 L229.483401,24.4088035 C229.483401,20.995156 228.250999,18.6657761 225.167954,18.6657761 C222.815064,18.6657761 221.413602,20.236118 220.798082,21.7528451 C220.572896,22.2964121 220.51762,23.053764 220.51762,23.8129705 L220.51762,38 L212,38 C212,38 212.112253,14.9808509 212,12.5971818 L220.51762,12.5971818 L220.51762,16.1952779 C221.647973,14.4656088 223.672438,12 228.194192,12 C233.798507,12 238,15.6314789 238,23.434126 Z" id="LinkedIn"></path>
            </g>
        </g>
    </g>
</svg>