<svg xmlns="http://www.w3.org/2000/svg" width="25" height="25" viewBox="0 0 25 25">
    <path fill="#1C2541" fill-rule="evenodd" d="M24.219 5.469c.468 0 .781.312.781.781v12.5c0 .469-.313.781-.781.781H19.53v4.688c0 .468-.312.781-.781.781H6.25c-.469 0-.781-.313-.781-.781V19.53H.78c-.469 0-.781-.312-.781-.781V6.25c0-.469.313-.781.781-.781H5.47V.78C5.469.312 5.78 0 6.25 0h12.5c.469 0 .781.313.781.781V5.47h4.688zM7.03 1.562V5.47H17.97V1.562H7.03zM17.97 23.438v-9.375H7.03v9.376H17.97zm5.468-5.468V7.03H1.563V17.97H5.47V13.28c0-.469.312-.781.781-.781h12.5c.469 0 .781.313.781.781v4.688h3.907zm-6.25-8.594c0-.469.313-.781.782-.781h3.125c.468 0 .781.312.781.781 0 .469-.313.781-.781.781h-3.125c-.469 0-.782-.312-.782-.781z"/>
</svg>
