<?xml version="1.0" encoding="UTF-8"?>
<svg width="43px" height="49px" viewBox="0 0 43 49" version="1.1" xmlns="http://www.w3.org/2000/svg" xmlns:xlink="http://www.w3.org/1999/xlink">
    <!-- Generator: sketchtool 48.2 (47327) - http://www.bohemiancoding.com/sketch -->
    <title>09B792FE-022D-443A-84C1-9B635C101559</title>
    <desc>Created with sketchtool.</desc>
    <defs></defs>
    <g id="03.1-Success-Story" stroke="none" stroke-width="1" fill="none" fill-rule="evenodd" transform="translate(-840.000000, -1378.000000)">
        <g id="Results" transform="translate(720.000000, 1232.000000)" fill="#FFC72C">
            <path d="M128.062508,147.361121 L128.062508,148.722241 L121.343759,148.722241 C120.524946,148.788705 119.997389,149.378873 120.00001,150.083362 L120.00001,153.826443 C120.00001,158.688706 123.48274,162.758797 128.062508,163.566622 C128.062508,170.749595 133.369244,176.553414 140.156255,177.24146 L140.156255,186.833277 L130.750007,186.833277 C128.540144,186.833277 126.718758,188.678207 126.718758,190.916638 L126.718758,193.638879 C126.718758,194.391239 127.31977,195 128.062508,195 L154.937502,195 C155.680259,195 156.281252,194.391218 156.281252,193.638879 L156.281252,190.916638 C156.281252,188.678207 154.459866,186.833277 152.250002,186.833277 L142.843755,186.833277 L142.843755,177.24146 C149.631034,176.552937 154.937502,170.749527 154.937502,163.694227 C159.51727,162.758457 163,158.685712 163,153.826443 L163,150.083362 C163,149.331002 162.398988,148.722241 161.65625,148.722241 L154.937502,148.722241 L154.937502,147.361121 C154.937502,146.608761 154.33649,146 153.593752,146 L129.406258,146 C128.587444,146.066464 128.059888,146.656632 128.062508,147.361121 Z M130.750007,148.722241 L152.250002,148.722241 L152.250002,163.694567 C152.250002,169.750465 147.478616,174.583532 141.500005,174.583532 C135.521394,174.583532 130.750007,169.750465 130.750007,163.694567 L130.750007,148.722241 Z M122.687509,151.444482 L128.062508,151.444482 L128.062508,160.759991 C124.965568,160.007632 122.687509,157.224277 122.687509,153.826443 L122.687509,151.444482 Z M154.937502,151.444482 L160.312501,151.444482 L160.312501,153.826443 C160.312501,157.221282 158.034442,160.025939 154.937502,160.781089 L154.937502,151.444482 Z M130.750007,189.555858 L152.250002,189.555858 C153.018963,189.555858 153.593752,190.138057 153.593752,190.916979 L153.593752,192.278099 L129.406258,192.278099 L129.406258,190.916979 C129.406258,190.138077 129.981026,189.555858 130.750007,189.555858 Z" id="Page-1"></path>
        </g>
    </g>
</svg>