<?xml version="1.0" encoding="UTF-8"?>
<svg width="29px" height="24px" viewBox="0 0 29 24" version="1.1" xmlns="http://www.w3.org/2000/svg" xmlns:xlink="http://www.w3.org/1999/xlink">
    <!-- Generator: sketchtool 48.2 (47327) - http://www.bohemiancoding.com/sketch -->
    <title>6108E69B-9057-4A88-959F-FEEE24AB557F</title>
    <desc>Created with sketchtool.</desc>
    <defs></defs>
    <g id="04-About-Us" stroke="none" stroke-width="1" fill="none" fill-rule="evenodd" transform="translate(-922.000000, -1230.000000)">
        <g id="Group-5" transform="translate(720.000000, 1110.000000)" fill="#FFFFFF">
            <g id="Group-4" transform="translate(180.000000, 96.000000)">
                <g id="Group-7">
                    <path d="M35.9955977,30.7587507 L36.0562924,31.7276139 L35.0447151,31.6089776 C31.3625741,31.1542051 28.1457586,29.6119331 25.4145001,27.0217071 L24.0792182,25.7364804 L23.7352819,26.6855709 C23.0069463,28.8012517 23.4722718,31.0355688 24.9896377,32.5382953 C25.7988994,33.3687495 25.6168155,33.4873858 24.220839,32.9930678 C23.7352819,32.8348861 23.3104195,32.7162498 23.2699564,32.7755679 C23.1283356,32.913977 23.6138927,34.7132943 23.998292,35.4251121 C24.5243121,36.413748 25.596584,37.3826112 26.7700136,37.95602 L27.7613592,38.4107925 L26.5879297,38.4305652 C25.4549632,38.4305652 25.4145001,38.4503379 25.5358894,38.865565 C25.9405202,40.1507917 27.5388122,41.5151092 29.3191881,42.1082907 L30.5735439,42.5235178 L29.4810405,43.1562448 C27.8625169,44.0657898 25.9607518,44.5798804 24.0589866,44.6194259 C23.1485671,44.6391986 22.4,44.7182895 22.4,44.7776076 C22.4,44.9753348 24.8682484,46.082607 26.304688,46.5176068 C30.614007,47.8028334 35.7325877,47.2491973 39.5765811,45.0544257 C42.3078395,43.492381 45.039098,40.3880643 46.3136853,37.3826112 C47.0015578,35.781021 47.6894303,32.8546588 47.6894303,31.4507959 C47.6894303,30.5412508 47.7501249,30.4226145 48.8830914,29.3351151 C49.5507324,28.7023881 50.1779102,28.010343 50.2992995,27.8126158 C50.5016149,27.4369342 50.4813834,27.4369342 49.4495746,27.7730704 C47.7298934,28.3662519 47.4871149,28.287161 48.3368397,27.3973887 C48.9640176,26.7646617 49.7125847,25.6178441 49.7125847,25.2817079 C49.7125847,25.2223898 49.4091116,25.3212534 49.0651753,25.4992078 C48.7010075,25.696935 47.8917457,25.9935258 47.2847994,26.1714802 L46.192296,26.5076164 L45.2009504,25.8551167 C44.6546987,25.4992078 43.8859,25.1037535 43.4812691,24.9851172 C42.4494603,24.7082991 40.8713999,24.7478445 39.9407489,25.064208 C37.4118058,25.9539803 35.8135138,28.2476156 35.9955977,30.7587507 Z" id="Twitter"></path>
                </g>
            </g>
        </g>
    </g>
</svg>