<svg xmlns="http://www.w3.org/2000/svg" width="128" height="128" viewBox="0 0 128 128">
    <g fill="none" fill-rule="evenodd">
        <path fill="#2B63FF" d="M112.648 39.523L80.888 70.87 64.981 54.261 39.24 79.077a3 3 0 1 1-4.164-4.319L65.15 45.764 81.008 62.32l27.464-27.106-5.302-3.707 18.18-3.964-5.222 17.86-3.48-5.88z"/>
        <path fill="#FFC72C" fill-rule="nonzero" d="M114 64.5c0 27.338-22.162 49.5-49.5 49.5S15 91.838 15 64.5 37.162 15 64.5 15a49.352 49.352 0 0 1 18.947 3.756l-1.723 4.157A44.85 44.85 0 0 0 64.5 19.5c-24.853 0-45 20.147-45 45s20.147 45 45 45 45-20.147 45-45h4.5z"/>
    </g>
</svg>
