<?xml version="1.0" encoding="UTF-8"?>
<svg width="28px" height="27px" viewBox="0 0 28 27" version="1.1" xmlns="http://www.w3.org/2000/svg" xmlns:xlink="http://www.w3.org/1999/xlink">
    <!-- Generator: sketchtool 48.2 (47327) - http://www.bohemiancoding.com/sketch -->
    <title>86131783-61C6-4D09-91F1-C45EACE4C031</title>
    <desc>Created with sketchtool.</desc>
    <defs></defs>
    <g id="04-About-Us" stroke="none" stroke-width="1" fill="none" fill-rule="evenodd" transform="translate(-1017.000000, -1228.000000)">
        <g id="Group-5" transform="translate(720.000000, 1110.000000)" fill="#FFFFFF">
            <g id="Group-4" transform="translate(180.000000, 96.000000)">
                <g id="Group-8" transform="translate(94.400000, 0.000000)">
                    <path d="M29.6,31.2 L29.6,48.8 L24,48.8 L24,31.2 L29.6,31.2 Z M50.4,38.9400237 L50.3997697,48.7995435 L44.6349175,48.7995435 L44.6349175,39.5998055 C44.6349175,37.2890287 43.8006764,35.7122177 41.7136921,35.7122177 C40.1209663,35.7122177 39.1722848,36.7752184 38.7556248,37.8019259 C38.603191,38.1698789 38.5657733,38.6825479 38.5657733,39.1964724 L38.5657733,48.8 L32.8,48.8 C32.8,48.8 32.8759866,33.2178068 32.8,31.6042461 L38.5657733,31.6042461 L38.5657733,34.0398804 C39.3309356,32.8690275 40.701343,31.2 43.7622226,31.2 C47.5559126,31.2 50.4,33.6582319 50.4,38.9400237 Z M26.8,28.8 C24.8117749,28.8 23.2,27.3673112 23.2,25.6 C23.2,23.8326888 24.8117749,22.4 26.8,22.4 C28.7882251,22.4 30.4,23.8326888 30.4,25.6 C30.4,27.3673112 28.7882251,28.8 26.8,28.8 Z" id="Combined-Shape"></path>
                </g>
            </g>
        </g>
    </g>
</svg>