<?xml version="1.0" encoding="UTF-8"?>
<svg width="182px" height="207px" viewBox="0 0 182 207" version="1.1" xmlns="http://www.w3.org/2000/svg" xmlns:xlink="http://www.w3.org/1999/xlink">
    <!-- Generator: sketchtool 48.2 (47327) - http://www.bohemiancoding.com/sketch -->
    <title>E63B59A9-603C-4729-8C3F-A743694918CD</title>
    <desc>Created with sketchtool.</desc>
    <defs>
        <path d="M97.2326674,1.68807991 L175.565335,46.9134665 C179.463788,49.1642397 181.865335,53.3238402 181.865335,57.8253866 L181.865335,148.27616 C181.865335,152.777706 179.463788,156.937307 175.565335,159.18808 L97.2326674,204.413467 C93.3342138,206.66424 88.531121,206.66424 84.6326674,204.413467 L6.3,159.18808 C2.40154643,156.937307 8.34887715e-14,152.777706 7.28306304e-14,148.27616 L-1.59872116e-14,57.8253866 C-2.48689958e-14,53.3238402 2.40154643,49.1642397 6.3,46.9134665 L84.6326674,1.68807991 C88.531121,-0.562693304 93.3342138,-0.562693304 97.2326674,1.68807991 Z" id="path-1"></path>
    </defs>
    <g id="02-Services-V4" stroke="none" stroke-width="1" fill="none" fill-rule="evenodd" transform="translate(-327.000000, -4472.000000)">
        <g id="Our-Expertise" transform="translate(0.000000, 4181.000000)">
            <g id="Messaging" transform="translate(327.000000, 291.000000)">
                <g id="Polygon">
                    <use fill="#ffffff" fill-rule="evenodd" xlink:href="#path-1"></use>
                    <path stroke="#ffffff" stroke-width="2" d="M96.7326674,2.55410532 C93.1436149,0.481964895 88.7217199,0.481964895 85.1326674,2.55410532 L6.8,47.7794919 C3.21094751,49.8516323 1,53.6811058 1,57.8253866 L1,148.27616 C1,152.420441 3.21094751,156.249914 6.8,158.322055 L85.1326674,203.547441 C88.7217199,205.619582 93.1436149,205.619582 96.7326674,203.547441 L175.065335,158.322055 C178.654387,156.249914 180.865335,152.420441 180.865335,148.27616 L180.865335,57.8253866 C180.865335,53.6811058 178.654387,49.8516323 175.065335,47.7794919 L96.7326674,2.55410532 Z"></path>
                </g>
            </g>
        </g>
    </g>
</svg>