<?xml version="1.0" encoding="UTF-8"?>
<svg width="41px" height="33px" viewBox="0 0 41 33" version="1.1" xmlns="http://www.w3.org/2000/svg" xmlns:xlink="http://www.w3.org/1999/xlink">
    <!-- Generator: sketchtool 48.2 (47327) - http://www.bohemiancoding.com/sketch -->
    <title>154B7176-7FB3-4F9F-8F3F-B43B6DDBD35A</title>
    <desc>Created with sketchtool.</desc>
    <defs></defs>
    <g id="Footer" stroke="none" stroke-width="1" fill="none" fill-rule="evenodd" transform="translate(-430.000000, -67.000000)">
        <g fill="#1DA1F2" id="Social-Media-Links">
            <g transform="translate(430.000000, 62.000000)">
                <path d="M19.9078395,13.7785167 L19.9967138,15.2058598 L18.5154758,15.0310831 C13.1237692,14.3611057 8.41343218,12.0890086 4.41408942,8.27305061 L2.45885518,6.37963634 L1.95523424,7.77784995 C0.888742836,10.8947011 1.57011234,14.186329 3.79196943,16.4001672 C4.97695988,17.6236041 4.71033703,17.7983808 2.66622851,17.0701446 C1.95523424,16.837109 1.33311425,16.6623323 1.27386473,16.7497206 C1.0664914,16.9536268 1.77748567,19.6044067 2.34035614,20.653067 C3.11059993,22.1095395 4.68071227,23.5368825 6.39894842,24.3816366 L7.85056172,25.0516139 L6.13232557,25.0807434 C4.47333894,25.0807434 4.41408942,25.1098728 4.59183799,25.7215913 C5.18433321,27.6150056 7.52468935,29.6249376 10.1316683,30.4988211 L11.9684035,31.1105396 L10.3686664,32.042682 C7.99868553,33.3826367 5.21395797,34.1400024 2.42923042,34.1982613 C1.09611616,34.2273908 0,34.3439086 0,34.4312969 C0,34.7225914 3.61422087,36.3538406 5.71757891,36.9946885 C12.027653,38.8881028 19.5227176,38.0724782 25.1514223,34.8391092 C29.150765,32.5378827 33.1501078,27.964559 35.0164677,23.5368825 C36.0237096,21.1773971 37.0309515,16.8662384 37.0309515,14.7980475 C37.0309515,13.4580927 37.1198258,13.283316 38.7788124,11.6811963 C39.7564295,10.7490539 40.6747971,9.72952312 40.8525457,9.43822862 C41.1487933,8.88476906 41.1191686,8.88476906 39.6083057,9.37996972 C37.090201,10.2538532 36.7347039,10.1373354 37.9789439,8.82651016 C38.8973115,7.89436775 39.9934276,6.20485964 39.9934276,5.70965899 C39.9934276,5.62227063 39.5490562,5.76791789 39.0454353,6.03008294 C38.5121896,6.32137744 37.3271991,6.75831919 36.4384563,7.02048425 L34.8387192,7.5156849 L33.3871059,6.55441304 C32.5872373,6.03008294 31.4614964,5.44749393 30.8690012,5.27271723 C29.3581384,4.86490493 27.047407,4.92316383 25.684668,5.38923503 C21.9815728,6.70006029 19.6412167,10.0790765 19.9078395,13.7785167 Z" id="Twitter"></path>
            </g>
        </g>
    </g>
</svg>