<?xml version="1.0" encoding="UTF-8"?>
<svg width="128px" height="128px" viewBox="0 0 128 128" version="1.1" xmlns="http://www.w3.org/2000/svg" xmlns:xlink="http://www.w3.org/1999/xlink">
    <!-- Generator: sketchtool 48.2 (47327) - http://www.bohemiancoding.com/sketch -->
    <title>F739AE3D-6B37-4074-A1CB-235B33FEC2B9</title>
    <desc>Created with sketchtool.</desc>
    <defs>
        <polygon id="path-1" points="113.44207 71.9299088 100.74587 51.4021354 126.138269 51.4021354"></polygon>
        <polygon id="path-2" points="13.0420299 42.3154055 25.7382295 62.8431789 0.345830266 62.8431789"></polygon>
    </defs>
    <g id="Symbols" stroke="none" stroke-width="1" fill="none" fill-rule="evenodd">
        <g id="Icon-Succeed">
            <g id="Group" transform="translate(1.000000, 7.000000)">
                <path d="M28.7645929,16.0137324 L114.113808,50.1048348 C112.172567,23.866043 90.001005,3.1640625 62.9219408,3.1640625 C50.1159162,3.1640625 38.0665014,7.81393037 28.7645929,16.0137324 Z" id="Page-1" stroke="#FFC72C" stroke-width="5"></path>
                <g id="Triangle-4">
                    <use fill="#FFC72C" fill-rule="evenodd" xlink:href="#path-1"></use>
                    <path stroke="#FFC72C" stroke-width="4" d="M113.44207,68.1277071 L122.549672,53.4021354 L104.334467,53.4021354 L113.44207,68.1277071 Z"></path>
                </g>
                <path d="M98.3437288,98.5540614 L12.9945133,64.462959 C14.9357544,90.7017507 37.1073167,111.403731 64.1863809,111.403731 C76.9924055,111.403731 89.0418203,106.753863 98.3437288,98.5540614 Z" id="Page-1" stroke="#FFC72C" stroke-width="5"></path>
                <g id="Triangle-4">
                    <use fill="#FFC72C" fill-rule="evenodd" xlink:href="#path-2"></use>
                    <path stroke="#FFC72C" stroke-width="4" d="M13.0420299,46.1176071 L3.93442747,60.8431789 L22.1496323,60.8431789 L13.0420299,46.1176071 Z"></path>
                </g>
                <path d="M79.4,39.744 L74.004,43.24 C71.572,38.908 69.14,37.54 65.568,37.54 C61.92,37.54 59.184,40.656 59.184,44.228 C59.184,46.736 59.944,48.56 62.3,50.384 C63.516,51.22 64.504,51.904 65.34,52.36 L69.444,54.488 C72.484,56.008 73.928,56.768 76.436,58.668 C80.008,61.328 81.908,64.444 82.136,69.764 C82.136,74.02 80.768,77.668 78.032,80.632 C75.676,83.216 72.712,84.812 69.216,85.344 L69.216,91.88 L63.136,91.88 L63.136,85.42 C55.916,84.204 50.52,78.656 49,71.284 L54.776,67.788 C56.828,75.008 59.868,79.264 66.176,79.264 C69.292,79.264 71.648,78.276 73.396,76.224 C74.764,74.552 75.448,72.424 75.448,69.916 C75.448,65.28 71.8,62.62 65.416,59.58 C61.236,57.68 59.184,56.464 56.448,54.108 C53.712,51.676 52.496,48.712 52.496,44.76 C52.496,37.996 57.056,32.676 63.136,31.46 L63.136,25 L69.216,25 L69.216,31.536 C73.624,32.372 77.044,35.108 79.4,39.744 Z" id="$" fill="#2B63FF"></path>
            </g>
        </g>
    </g>
</svg>