<svg xmlns="http://www.w3.org/2000/svg" width="141" height="123" viewBox="0 0 141 123">
    <g fill="none" fill-rule="evenodd">
        <path stroke="#FFC72C" stroke-width="4" d="M31.205 16.849l94.471 37.734C124.106 25.286 99.557 2 69.492 2 55.064 2 41.511 7.386 31.205 16.849zM126.866 75.198l10.153-16.417h-20.307l10.154 16.417zM109.795 106.151L15.324 68.417C16.894 97.714 41.443 121 71.508 121c14.428 0 27.981-5.386 38.287-14.849zM14.134 47.802L3.981 64.22h20.307L14.134 47.802z"/>
        <path fill="#2B63FF" d="M86.4 43.744l-5.396 3.496c-2.432-4.332-4.864-5.7-8.436-5.7-3.648 0-6.384 3.116-6.384 6.688 0 2.508.76 4.332 3.116 6.156 1.216.836 2.204 1.52 3.04 1.976l4.104 2.128c3.04 1.52 4.484 2.28 6.992 4.18 3.572 2.66 5.472 5.776 5.7 11.096 0 4.256-1.368 7.904-4.104 10.868-2.356 2.584-5.32 4.18-8.816 4.712v6.536h-6.08v-6.46C62.916 88.204 57.52 82.656 56 75.284l5.776-3.496c2.052 7.22 5.092 11.476 11.4 11.476 3.116 0 5.472-.988 7.22-3.04 1.368-1.672 2.052-3.8 2.052-6.308 0-4.636-3.648-7.296-10.032-10.336-4.18-1.9-6.232-3.116-8.968-5.472-2.736-2.432-3.952-5.396-3.952-9.348 0-6.764 4.56-12.084 10.64-13.3V29h6.08v6.536c4.408.836 7.828 3.572 10.184 8.208z"/>
    </g>
</svg>
