<svg xmlns="http://www.w3.org/2000/svg" width="92" height="135" viewBox="0 0 92 135">
    <g fill="none" fill-rule="evenodd" opacity=".9">
        <path stroke="#FFC72C" stroke-width="4" d="M22.211 18.777V27H2.5v106h87V27H70.789v-8.223H55.48l1.156-2.77a9.078 9.078 0 0 0 .703-3.51c0-5.287-4.557-9.615-10.228-9.615-5.67 0-10.227 4.328-10.227 9.616 0 1.218.24 2.401.702 3.509l1.157 2.77H22.21z"/>
        <path fill="#FFC72C" d="M69 32v-7h4v11H20V25h4v7h45z"/>
        <path fill="#FFC72C" d="M39 20a9.956 9.956 0 0 1-2-6c0-5.523 4.477-10 10-10s10 4.477 10 10a9.956 9.956 0 0 1-2 6h14v12H24V20h15z"/>
        <path fill="#2B63FF" fill-rule="nonzero" d="M34.451 49.038l3.098 3.924-12.953 10.223-7.145-5.639 3.098-3.925 4.047 3.194 9.855-7.777zm0 23l3.098 3.924-12.953 10.223-7.145-5.639 3.098-3.925 4.047 3.194 9.855-7.777zm0 24l3.098 3.924-12.953 10.223-7.145-5.639 3.098-3.925 4.047 3.194 9.855-7.777zM44.944 76v-5H72.65v5H44.944zm0 25v-5H72.65v5H44.944zm-.222-38v-5h16.353v5H44.722zm0 23v-5h16.353v5H44.722zm0 25v-5h16.353v5H44.722zm.222-58v-5H72.65v5H44.944z"/>
    </g>
</svg>
