<svg xmlns="http://www.w3.org/2000/svg" viewBox="0 0 224 63">
    <g fill="none" fill-rule="evenodd">
        <path fill="#2B63FF" d="M25.82 35.215c.23.054.468.082.712.082 1.49 0 2.762-1.044 3.25-2.507a6.745 6.745 0 0 0-.003-.005 4.198 4.198 0 0 0 .217-1.325c0-.628-.14-1.22-.381-1.742l.009.012c-.571-1.25-1.741-2.106-3.092-2.106-.203 0-.403.02-.597.057a.3.3 0 0 1-.001.004 3.3 3.3 0 0 0-1.524.747c-.32.276-.595.614-.812.996l.003-.011a4.116 4.116 0 0 0-.533 2.043c0 .855.253 1.645.68 2.282h.004c.447.666 1.082 1.168 1.82 1.405.082.026.165.049.25.068h-.001zm-5.112-2.418c-1.177-1.6-1.582-3.746-1.043-5.74.13-.478.314-.949.555-1.4a6.155 6.155 0 0 1 2.021-2.245c.088-.058.177-.113.268-.166l11.113-6.863 7.178-4.392a5.805 5.805 0 0 1 6.154.026l2.186 1.363c1.902 1.186 3.081 3.37 3.099 5.742l.27 24.403c.023 2.158-.991 4.176-2.68 5.33l-1.998 1.364-2.643 1.647c1.085-.703 2.622-2.439 2.63-5.345l-.097-30.216c-.005-.663-.338-1.201-.805-1.493a1.495 1.495 0 0 0-1.6-.005l-9.559 5.86-6.165 3.779-1.125.69c1.867-.294 3.783.4 5.108 1.897.319.361.604.768.845 1.22a6.74 6.74 0 0 1 .79 3.345l-.053 13.824-.066 8.91c-.019 2.37-1.197 4.556-3.099 5.742l-2.186 1.363a5.802 5.802 0 0 1-6.154.026L3.946 49.513c-1.742-1.056-2.853-3.013-2.934-5.17l-.095-2.55v-3.296A6.257 6.257 0 0 0 3.89 43.63l24.28 15.016a1.492 1.492 0 0 0 1.6-.006c.466-.29.8-.829.805-1.493l.08-11.869.052-7.656.01-1.497c-.683 1.936-2.216 3.418-4.108 3.916a5.528 5.528 0 0 1-4.479-.753l-11.06-6.962-7.111-4.516C2.065 26.607.902 24.412.902 22.04v-2.725c0-2.371 1.162-4.566 3.056-5.769L23.393 1.093a5.39 5.39 0 0 1 5.614-.159L31.1 2.12l2.643 1.648c-1.107-.663-3.267-1.232-5.602.212L3.958 19.18c-.53.336-.795.916-.795 1.499 0 .58.265 1.163.795 1.499l9.479 6.01 6.113 3.876 1.158.733zm18.76-25.573l2.65 1.638c-1.11-.66-3.275-1.225-5.616.211L14.057 23.24l-4.496-2.828 22.185-14.21a5.435 5.435 0 0 1 5.625-.156l2.098 1.178zM3.935 38.966C2.19 37.914 1.078 35.963.998 33.814l-.096-2.54V27.99a6.227 6.227 0 0 0 2.976 5.115L26.532 46.87l-.039 5.598L3.934 38.966zm35.372-15.147l4.495-2.771.395 27.834c.024 2.155-.985 4.173-2.663 5.324l-1.984 1.365-2.626 1.647c1.08-.704 2.605-2.438 2.614-5.344l-.231-28.055z"/>
        <text fill="#FFF" font-family="Apercu-Bold, Apercu, Times New Roman" font-size="28.8" font-weight="bold" transform="translate(-12 -7)">
            <tspan x="87.445" y="34.311">Strategy</tspan> <tspan x="87.445" y="63.111">to Revenue</tspan>
        </text>
    </g>
</svg>
