<?xml version="1.0" encoding="UTF-8"?>
<svg width="224px" height="63px" viewBox="0 0 224 63" version="1.1" xmlns="http://www.w3.org/2000/svg" xmlns:xlink="http://www.w3.org/1999/xlink">
    <!-- Generator: sketchtool 48.2 (47327) - http://www.bohemiancoding.com/sketch -->
    <title>035ACECB-D29A-4081-8BEA-CA5E4A229A42</title>
    <desc>Created with sketchtool.</desc>
    <style>
        <![CDATA[
@font-face {
  font-family: 'Apercu';
  src: url("../fonts/Apercu/Apercu-Bold.eot");
  src: url("../fonts/Apercu/Apercu-Bold.eot?#iefix") format("embedded-opentype"), url("../fonts/Apercu/Apercu-Bold.woff2") format("woff2"), url("../fonts/Apercu/Apercu-Bold.woff") format("woff"), url("../fonts/Apercu/Apercu-Bold.ttf") format("truetype"), url("../fonts/Apercu/Apercu-Bold.svg#Apercu-Bold") format("svg");
  font-weight: bold;
  font-style: normal; }


        text {
            letter-spacing: .05m;
        }

        ]]>
    </style>
    <g id="Navigation-Bar" stroke="none" stroke-width="1" fill="none" fill-rule="evenodd" transform="translate(-68.000000, -43.000000)">
        <g id="Logo-Strategy-to-Revenue" transform="translate(56.000000, 36.000000)">
            <g id="Group-6" fill="#2B63FF">
                <path d="M37.820682,42.2153264 C38.0501641,42.2686672 38.2880876,42.296732 38.5320475,42.296732 C40.0229112,42.296732 41.2937724,41.2533863 41.7819244,39.7898599 C41.7809397,39.7883543 41.7799544,39.7868492 41.7789687,39.7853447 C41.9038722,39.4099691 41.9805523,39.0088081 41.9936403,38.5890049 C41.9949117,38.5462782 41.9955524,38.5033745 41.9955524,38.4603051 C41.9955524,37.8321789 41.8564838,37.2408338 41.6148567,36.7175646 C41.6179149,36.7216379 41.6209687,36.7257153 41.624018,36.7297969 C41.0529183,35.4805402 39.8828157,34.624183 38.5321393,34.624183 C38.328611,34.624183 38.1292614,34.6436847 37.9354968,34.6810835 C37.9350199,34.6824591 37.934533,34.6838338 37.9340343,34.6852074 C37.3667521,34.7947346 36.8467218,35.0567281 36.4099458,35.4317504 C36.0897798,35.7082622 35.8145115,36.0457608 35.5981225,36.4282933 C35.5992264,36.4244513 35.6003335,36.4206104 35.6014439,36.4167706 C35.2638678,37.007961 35.068451,37.7085721 35.068451,38.4602645 C35.068451,39.3151535 35.3209427,40.1046228 35.7478282,40.7422906 L35.7521437,40.7417588 C36.1985916,41.4080787 36.8340834,41.9099815 37.5715876,42.1465345 C37.6537627,42.1727474 37.7371918,42.1956825 37.821752,42.2152036 L37.820682,42.2153264 Z M32.7075489,39.7970806 C31.5309595,38.1965541 31.1258522,36.0506889 31.6649201,34.0573912 C31.7954405,33.5786953 31.9791633,33.1079511 32.2201383,32.6568875 C32.7293339,31.7046642 33.4310886,30.9486506 34.2412729,30.411708 C34.3292683,30.3540577 34.4181843,30.2993894 34.5085729,30.2455162 L45.6217752,23.3831472 L52.7996653,18.9905949 C54.7105294,17.8222826 57.0523503,17.8314271 58.954378,19.0174321 L61.1400898,20.3799662 C63.0421174,21.5657725 64.22122,23.7495246 64.2387086,26.1223298 L64.5082177,50.5250889 C64.5321496,52.6831966 63.5178084,54.7005581 61.8285899,55.8543585 L59.830835,57.2186817 L57.1878412,58.8664852 C58.2734255,58.1625557 59.8098486,56.427084 59.818685,53.5209145 L59.7205645,23.3054188 C59.7163304,22.6416456 59.3831258,22.1035102 58.915903,21.812277 C58.450521,21.5220378 57.8509368,21.4788995 57.3161526,21.806512 L47.7574143,27.6665616 L41.5916562,31.4456356 L40.4674805,32.1353154 C42.3340605,31.8421842 44.2499355,32.5365107 45.574832,34.0326811 C45.8936775,34.3942874 46.1790185,34.8012187 46.4203617,35.2524811 C46.9295573,36.2045056 47.1847073,37.2388308 47.2106642,38.2650055 C47.2126892,38.3763301 47.2121369,38.4868596 47.2101119,38.5981842 L47.1570937,52.4223192 L47.0906369,61.3314712 C47.0722278,63.7022885 45.8940457,65.8878298 43.9920181,67.073636 L41.8063062,68.4365677 C39.9042786,69.6223739 37.5633781,69.6331088 35.6517777,68.4632061 L15.9464986,56.5136986 C14.2037096,55.4571084 13.093273,53.4997827 13.0124571,51.3430665 L12.9172821,48.7925395 L12.9172821,45.4971313 C12.9391889,46.8642377 13.5625209,49.1690553 15.8886941,50.6301912 L40.1699218,65.6460963 C40.7043378,65.9739076 41.3024493,65.9315645 41.769488,65.6403312 C42.2352381,65.350092 42.5695473,64.8109627 42.5737814,64.1473883 L42.654045,52.2779947 L42.7059587,44.6222389 L42.7159003,43.1246989 C42.0328723,45.0605003 40.4998325,46.5426589 38.6083703,47.0412637 C38.1593725,47.158751 37.6897565,47.2221663 37.2076223,47.2221663 C36.1892312,47.2221663 35.2321424,46.9440534 34.3963695,46.4550202 C34.3061649,46.4013458 34.2178013,46.3454847 34.1294376,46.2880332 L23.0692535,39.3262672 L15.9578202,34.8096675 C14.0653653,33.6069638 12.9017264,31.412278 12.9017264,29.0404667 L12.9017264,26.3150009 C12.9017264,23.9435873 14.0635244,21.7489015 15.9578202,20.5461978 L35.393222,8.09254865 C37.1122632,6.99122987 39.237225,6.93139287 41.0068913,7.93430862 L43.1001895,9.12011485 L45.7431832,10.7679183 C44.635692,10.1049403 42.475753,9.53559431 40.1405593,10.9804291 L15.9578202,26.1800198 C15.4276383,26.5157829 15.1627314,27.0964602 15.1627314,27.6789266 C15.1627314,28.2594051 15.4276383,28.8416727 15.9578202,29.1778334 L25.4366631,35.1871773 L31.5503234,39.0636604 L32.7075489,39.7970806 Z M51.4685487,14.2236856 L54.1179799,15.8617808 C53.0072852,15.2018003 50.843091,14.636865 48.5017761,16.0732116 L26.0572562,30.2398693 L21.5606032,27.412031 L43.7455305,13.2020992 C45.4669228,12.1074011 47.5977223,12.0481214 49.3707748,13.045996 L51.4685487,14.2236856 Z M15.9341938,45.9656573 C14.1900597,44.9137581 13.0777433,42.9626645 12.998121,40.8141046 L12.9017264,38.273583 L12.9017264,34.9895425 C12.9232908,36.3527927 13.5477361,38.6481154 15.8776104,40.1048501 L38.5320017,53.8712407 L38.4934807,59.4686275 L15.9341938,45.9656573 Z M51.3058433,30.8194126 L55.8011643,28.0477124 L56.19568,55.8817417 C56.2200057,58.0373099 55.2114941,60.054591 53.5326532,61.2063864 L51.5489177,62.5709769 L48.9226538,64.2183007 C50.0021308,63.5141497 51.5278842,61.7798005 51.5368463,58.8739858 L51.3058433,30.8194126 Z" id="Combined-Shape-Copy-8"></path>
            </g>
            <text id="Strategy-to-Revenue" font-family="Apercu-Bold, Apercu, sans-serif" font-size="28" font-weight="bold" line-spacing="30" fill="#FFFFFF">
                <tspan x="87.4450345" y="34.3111111">Strategy</tspan>
                <tspan x="87.4450345" y="63.1111111">to Revenue</tspan>
            </text>
        </g>
    </g>
</svg>