<?xml version="1.0" encoding="UTF-8"?>
<svg width="40px" height="40px" viewBox="0 0 40 40" version="1.1" xmlns="http://www.w3.org/2000/svg" xmlns:xlink="http://www.w3.org/1999/xlink">
    <!-- Generator: sketchtool 48.2 (47327) - http://www.bohemiancoding.com/sketch -->
    <title>D0DD3DAB-2375-4172-94A9-68FA09084961</title>
    <desc>Created with sketchtool.</desc>
    <defs></defs>
    <g id="Footer" stroke="none" stroke-width="1" fill="none" fill-rule="evenodd" transform="translate(-848.000000, -65.000000)" >
        <g fill="#000000" id="Social-Media-Links">
            <g transform="translate(430.000000, 62.000000)">
                <path d="M443.441138,18.6502251 C443.442551,22.7251796 443.439831,26.8001341 443.446118,30.875125 C443.446683,31.2307629 443.330655,31.5040591 443.085105,31.7450808 C442.470772,32.3480716 441.864315,32.9595767 441.257363,33.5704269 C441.119401,33.70924 440.925066,33.8429954 441.029333,34.0807423 C441.122473,34.2933464 441.338989,34.2452803 441.514357,34.2454622 C444.757683,34.2483368 448.001008,34.2483004 451.244369,34.245062 C451.418677,34.2448801 451.632544,34.2886162 451.7153,34.060075 C451.79509,33.8394295 451.620747,33.7163353 451.494511,33.587492 C450.913096,32.9943619 450.335214,32.3971564 449.741578,31.8172344 C449.458059,31.5403361 449.324264,31.2254142 449.324617,30.8235295 C449.32882,25.6088161 449.328785,20.3941391 449.3249,15.1794258 C449.324582,14.77725 449.459436,14.4633105 449.747512,14.1895049 C450.315364,13.6497896 450.866579,13.0914082 451.421008,12.5367745 C451.579386,12.3783494 451.823523,12.2370984 451.728793,11.9625288 C451.627917,11.6699844 451.345104,11.764843 451.132968,11.7641153 C449.026369,11.7572747 446.919558,11.7716472 444.813136,11.7505432 C444.36202,11.7460313 444.142855,11.910533 443.977483,12.3397801 C442.368165,16.517016 440.740621,20.6867927 439.1123,24.8562056 C439.018912,25.0954443 438.990373,25.5071897 438.764003,25.5137028 C438.485569,25.5217077 438.46028,25.1053777 438.353011,24.8641741 C436.491891,20.6783875 434.636458,16.4899447 432.789007,12.2977541 C432.636351,11.9513218 432.460736,11.7499247 432.05144,11.7527992 C429.747857,11.7689546 427.444134,11.7595306 425.140481,11.7627326 C424.964619,11.7629873 424.750999,11.7177593 424.65362,11.9264701 C424.551755,12.1448232 424.693532,12.3115808 424.82164,12.4702243 C425.577645,13.4062937 426.325526,14.3495311 427.093187,15.2753396 C427.384406,15.626502 427.530281,16.0030256 427.529575,16.4665484 C427.523358,20.6351972 427.523393,24.8038459 427.529575,28.9724947 C427.530281,29.4503536 427.38868,29.8498732 427.092587,30.2152991 C426.208897,31.3057911 425.336829,32.4063257 424.461581,33.504095 C424.33651,33.6609556 424.184455,33.8248023 424.280068,34.0467213 C424.384299,34.2886162 424.617946,34.2127875 424.804121,34.2131514 C427.122962,34.2175905 429.441803,34.2181363 431.760609,34.2125328 C431.960842,34.2120962 432.217977,34.3064818 432.336513,34.058001 C432.459465,33.8003508 432.257748,33.6182383 432.115971,33.4403465 C431.250648,32.3543664 430.386244,31.2675493 429.511703,30.1895013 C429.225429,29.8366287 429.093435,29.4524276 429.094601,28.9892323 C429.103184,25.5700649 429.098521,22.1507883 429.101206,18.7315481 C429.101312,18.5725771 429.062247,18.3986151 429.175167,18.2370243 C429.394827,18.4059287 429.441768,18.645131 429.53339,18.8508582 C431.732211,23.7870722 433.927182,28.7251055 436.121341,33.6634662 C436.256019,33.9665262 436.366502,34.2405137 436.791799,34.2287246 C437.207842,34.2171538 437.277389,33.9327599 437.388013,33.6435266 C439.292189,28.663431 441.196364,23.6834081 443.102695,18.7041857 C443.161362,18.5509638 443.176621,18.3665953 443.408396,18.2377884 C443.422312,18.4065472 443.441103,18.528368 443.441138,18.6502251 Z M457.965364,3 C457.976913,3.23166308 457.998577,3.46329002 457.998577,3.6949531 C458.000191,16.1021554 458.000048,29.75943 457.99994,42.1666685 C457.99994,42.9983787 457.999402,42.9989569 457.178283,42.9989569 C442.30979,42.9990654 433.691297,42.9990292 418.822768,42.9989208 C418.684247,42.9989208 418.545224,42.9893435 418.407313,42.9982341 C418.110292,43.0173888 417.982567,42.8807762 418.0019,42.5853245 C418.010006,42.4618672 418.001147,42.3373257 418.001147,42.2132179 C418.001039,29.7749706 418.00086,16.0867233 418.002474,3.64843978 C418.00251,3.43228114 418.024138,3.21615864 418.035687,3 L457.965364,3 Z" id="Medium"></path>
            </g>
        </g>
    </g>
</svg>