<svg xmlns="http://www.w3.org/2000/svg" xmlns:xlink="http://www.w3.org/1999/xlink" width="174" height="198" viewBox="0 0 174 198">
    <defs>
        <path id="a" d="M401.603 4525.464l74.602 43.072a12 12 0 0 1 6 10.392v86.144a12 12 0 0 1-6 10.392l-74.602 43.072a12 12 0 0 1-12 0L315 4675.464a12 12 0 0 1-6-10.392v-86.144a12 12 0 0 1 6-10.392l74.603-43.072a12 12 0 0 1 12 0z"/>
    </defs>
    <g fill="none" fill-rule="evenodd" transform="translate(-309 -4523)">
        <use fill="#FFF" xlink:href="#a"/>
        <path stroke="#FFC72C" stroke-width="3" d="M400.853 4526.763a10.5 10.5 0 0 0-10.5 0l-74.603 43.072a10.5 10.5 0 0 0-5.25 9.093v86.144a10.5 10.5 0 0 0 5.25 9.093l74.603 43.072a10.5 10.5 0 0 0 10.5 0l74.602-43.072a10.5 10.5 0 0 0 5.25-9.093v-86.144a10.5 10.5 0 0 0-5.25-9.093l-74.602-43.072z"/>
    </g>
</svg>
